<svg width="24" height="24" viewBox="0 0 24 24" fill="none" xmlns="http://www.w3.org/2000/svg">
<path d="M21.4406 8.2499C21.4408 8.05297 21.402 7.85795 21.3263 7.67612C21.2507 7.49429 21.1398 7.32925 21 7.19053L16.8094 2.9999C16.527 2.72165 16.1464 2.56567 15.75 2.56567C15.3536 2.56567 14.973 2.72165 14.6906 2.9999L3.44063 14.2499C3.29472 14.3938 3.17986 14.5661 3.10312 14.7561L3.075 14.8311C3.02581 14.9858 3.00051 15.147 3 15.3093V19.4999C3 19.8977 3.15804 20.2793 3.43934 20.5606C3.72064 20.8419 4.10218 20.9999 4.5 20.9999H8.69062C8.85379 21.0009 9.01578 20.9723 9.16875 20.9155L9.24375 20.8968C9.43378 20.82 9.60608 20.7052 9.75 20.5593L17.5969 12.7124L17.9156 14.0155L14.4656 17.4655C14.3248 17.6077 14.2458 17.7998 14.2458 17.9999C14.2458 18.2 14.3248 18.3921 14.4656 18.5343C14.609 18.6729 14.8006 18.7504 15 18.7504C15.1994 18.7504 15.391 18.6729 15.5344 18.5343L19.2844 14.7843C19.3723 14.6902 19.4361 14.5763 19.4704 14.4522C19.5047 14.3281 19.5084 14.1976 19.4813 14.0718L18.8344 11.4843L21 9.30928C21.1398 9.17056 21.2507 9.00551 21.3263 8.82368C21.402 8.64185 21.4408 8.44683 21.4406 8.2499V8.2499ZM18 10.1905L13.8094 5.9999L15.75 4.05928L19.9406 8.2499L18 10.1905Z" fill="#159500"/>
</svg>
