<svg width="18" height="18" viewBox="0 0 18 18" fill="none" xmlns="http://www.w3.org/2000/svg">
<path d="M15 3V12C15 12.3978 14.842 12.7794 14.5607 13.0607C14.2794 13.342 13.8978 13.5 13.5 13.5H7.5C7.10218 13.5 6.72064 13.342 6.43934 13.0607C6.15804 12.7794 6 12.3978 6 12V3C6 2.60218 6.15804 2.22064 6.43934 1.93934C6.72064 1.65804 7.10218 1.5 7.5 1.5H13.5C13.8978 1.5 14.2794 1.65804 14.5607 1.93934C14.842 2.22064 15 2.60218 15 3ZM12 15.75C12 15.5511 11.921 15.3603 11.7803 15.2197C11.6397 15.079 11.4489 15 11.25 15H4.5V4.5C4.5 4.30109 4.42098 4.11032 4.28033 3.96967C4.13968 3.82902 3.94891 3.75 3.75 3.75C3.55109 3.75 3.36032 3.82902 3.21967 3.96967C3.07902 4.11032 3 4.30109 3 4.5V15C3 15.3978 3.15804 15.7794 3.43934 16.0607C3.72064 16.342 4.10218 16.5 4.5 16.5H11.25C11.4489 16.5 11.6397 16.421 11.7803 16.2803C11.921 16.1397 12 15.9489 12 15.75Z" fill="#FFB8F1"/>
</svg>
