<svg width="24" height="24" viewBox="0 0 24 24" fill="none" xmlns="http://www.w3.org/2000/svg">
<g clip-path="url(#clip0_46_4804)">
<path d="M9.75 1.5H14.25C14.4489 1.5 14.6397 1.42098 14.7803 1.28033C14.921 1.13968 15 0.948912 15 0.75C15 0.551088 14.921 0.360322 14.7803 0.21967C14.6397 0.0790176 14.4489 0 14.25 0L9.75 0C9.55109 0 9.36032 0.0790176 9.21967 0.21967C9.07902 0.360322 9 0.551088 9 0.75C9 0.948912 9.07902 1.13968 9.21967 1.28033C9.36032 1.42098 9.55109 1.5 9.75 1.5V1.5Z" fill="#E60013"/>
<path d="M12 3C10.22 3 8.47991 3.52784 6.99987 4.51677C5.51983 5.50571 4.36628 6.91131 3.68509 8.55585C3.0039 10.2004 2.82567 12.01 3.17294 13.7558C3.5202 15.5016 4.37737 17.1053 5.63604 18.364C6.89472 19.6226 8.49836 20.4798 10.2442 20.8271C11.99 21.1743 13.7996 20.9961 15.4442 20.3149C17.0887 19.6337 18.4943 18.4802 19.4832 17.0001C20.4722 15.5201 21 13.78 21 12C20.995 9.61457 20.0452 7.32827 18.3585 5.64151C16.6717 3.95476 14.3854 3.00495 12 3V3ZM16.2469 8.82188L12.5344 12.5344C12.391 12.673 12.1994 12.7505 12 12.7505C11.8006 12.7505 11.609 12.673 11.4656 12.5344C11.3248 12.3922 11.2458 12.2001 11.2458 12C11.2458 11.7999 11.3248 11.6078 11.4656 11.4656L15.1781 7.75313C15.2454 7.67119 15.329 7.60424 15.4237 7.55658C15.5184 7.50893 15.622 7.48162 15.7279 7.47642C15.8337 7.47122 15.9395 7.48825 16.0384 7.52639C16.1373 7.56454 16.2271 7.62297 16.3021 7.69792C16.377 7.77288 16.4355 7.86269 16.4736 7.96158C16.5118 8.06048 16.5288 8.16626 16.5236 8.27213C16.5184 8.378 16.4911 8.48161 16.4434 8.57629C16.3958 8.67097 16.3288 8.75463 16.2469 8.82188V8.82188Z" fill="#E60013"/>
</g>
<defs>
<clipPath id="clip0_46_4804">
<rect width="24" height="24" fill="white"/>
</clipPath>
</defs>
</svg>
