<svg width="149" height="105" viewBox="0 0 149 105" fill="none" xmlns="http://www.w3.org/2000/svg">
<path d="M134.067 63.7866C133.853 62.5866 133.72 61.3866 133.693 60.1866C133.613 57.7866 133.88 54.9333 135.187 52.8266C136.547 50.6399 138.227 48.9866 139.827 48.0533C141.453 47.0933 142.84 46.9866 143.747 47.5466C144.653 48.1066 145.133 49.4133 145 51.2799C144.84 53.1199 144.093 55.3599 142.733 57.5199C141.4 59.6266 139.133 61.2533 137.133 62.3466C136.307 62.7999 135.453 63.1999 134.573 63.5733C134.387 63.6799 134.227 63.7333 134.067 63.7866ZM120.92 55.1733C121.933 54.7733 123.267 55.1733 124.653 56.3999C126.04 57.6266 127.373 59.5466 128.307 61.9466C129.213 64.2666 129.16 67.0666 128.84 69.3333C128.707 70.2666 128.52 71.1999 128.307 72.1066C128.253 72.2666 128.227 72.4533 128.173 72.6133C127.987 72.5333 127.8 72.4266 127.613 72.3199C126.733 71.8399 125.853 71.3333 125.027 70.7466C123.053 69.3866 120.92 67.4666 120.013 65.1466C119.08 62.7466 118.76 60.4266 118.973 58.5866C119.187 56.7466 119.907 55.5466 120.92 55.1733ZM122.333 87.8933C122.547 86.9066 122.68 85.9199 122.787 84.9333C122.973 82.7999 122.893 80.3466 122.04 78.2933C121.053 75.9199 119.693 73.9999 118.28 72.8266C116.84 71.6266 115.507 71.2533 114.52 71.6533C113.533 72.0533 112.84 73.2533 112.653 75.1199C112.493 76.9599 112.84 79.2799 113.827 81.6533L122.333 87.8933ZM122.333 87.8933C122.253 88.2399 122.173 88.6133 122.093 88.9599L122.333 87.8933ZM122.333 87.8933L122.093 88.9599L122.333 87.8933ZM122.093 88.9599L121.987 88.9066C121.107 88.4799 119.427 87.5999 117.8 86.3466C116.147 85.0933 114.573 83.4933 113.827 81.6533L122.093 88.9599ZM129.293 73.1999C129.4 73.0666 129.533 72.9066 129.693 72.7466C130.36 71.9999 131.08 71.2799 131.827 70.6133C133.64 69.0133 136.013 67.4133 138.44 67.0666C140.973 66.7199 143.32 66.9599 145.053 67.5999C146.813 68.2399 147.8 69.2266 147.933 70.2933C148.067 71.3599 147.373 72.5599 145.853 73.6533C144.333 74.7199 142.147 75.5466 139.587 75.8933C137.107 76.2133 134.413 75.4933 132.28 74.6666C131.293 74.2399 130.28 73.7599 129.293 73.1999ZM133.213 90.7733C130.787 91.3599 128.013 90.9066 125.827 90.2933C124.92 90.0266 124.013 89.7333 123.133 89.3866C122.973 89.3333 122.813 89.2533 122.653 89.1733C122.76 89.0399 122.867 88.8533 123 88.6666C123.587 87.8399 124.227 87.0666 124.893 86.3199C126.52 84.5333 128.707 82.6933 131.107 82.1066C133.613 81.5199 135.96 81.4933 137.747 81.9466C139.56 82.3999 140.653 83.2799 140.893 84.3199C141.133 85.3599 140.573 86.6399 139.16 87.8666C137.827 89.0933 135.72 90.1599 133.213 90.7733Z" fill="white"/>
<path d="M130.76 91.5733C128.893 91.5733 127.08 91.1999 125.72 90.7999C124.787 90.5333 123.88 90.2399 122.973 89.8666C122.813 89.8133 122.653 89.7333 122.467 89.6533L121.88 89.4133L121.853 89.4399L121.747 89.3866C120.867 88.9599 119.133 88.0533 117.453 86.7733C115.453 85.2533 114.093 83.6533 113.373 81.9999L113.32 81.8666C112.36 79.5199 111.933 77.0933 112.12 75.0666C112.307 73.0399 113.08 71.6533 114.307 71.1466H114.333C115.56 70.6399 117.08 71.0933 118.627 72.3999C120.173 73.7066 121.56 75.7333 122.547 78.0799C123.32 79.9466 123.56 82.2666 123.32 84.9866V85.0666C123.24 86.0533 123.08 87.0399 122.867 87.9999C123.4 87.3066 123.96 86.6133 124.547 85.9733C126.04 84.3199 128.387 82.2399 131.027 81.5999C133.507 81.0133 135.96 80.9599 137.933 81.4399C139.907 81.9199 141.16 82.9066 141.48 84.2133C141.8 85.4933 141.107 86.9599 139.587 88.2933C138.067 89.6266 135.853 90.6933 133.373 91.2799C132.493 91.4933 131.613 91.5733 130.76 91.5733ZM123.507 88.9333C124.307 89.2533 125.16 89.5466 125.987 89.7599C127.88 90.2933 130.68 90.7999 133.107 90.2133C135.427 89.6533 137.48 88.6666 138.867 87.4666C140.067 86.4266 140.627 85.3333 140.413 84.4533C140.2 83.5733 139.187 82.8533 137.64 82.4799C135.827 82.0266 133.56 82.0799 131.24 82.6399C128.867 83.1999 126.68 85.1466 125.293 86.6933C124.68 87.4133 124.067 88.1599 123.507 88.9333ZM114.253 81.3333L121.96 86.9599C122.093 86.2666 122.173 85.5733 122.227 84.8799V84.7999C122.44 82.3199 122.2 80.1333 121.507 78.4799C120.6 76.2666 119.32 74.3999 117.907 73.1999C116.68 72.1866 115.507 71.7866 114.68 72.1333H114.653C113.827 72.4799 113.267 73.5733 113.133 75.1466C113.027 76.9866 113.4 79.1733 114.253 81.3333ZM138.387 76.5066C136.093 76.5066 133.8 75.8133 132.147 75.1466C131.08 74.7199 130.04 74.2399 129.053 73.6799L128.493 73.3599L127.933 73.0933C127.747 72.9866 127.56 72.9066 127.373 72.7999C126.467 72.3199 125.587 71.7866 124.733 71.1999C122.92 69.9466 120.52 67.8933 119.533 65.3599C118.6 62.9866 118.227 60.5599 118.44 58.5333C118.653 56.5066 119.48 55.1466 120.707 54.6666C121.933 54.1866 123.48 54.6666 125 55.9999C126.52 57.3333 127.88 59.3866 128.813 61.7599C129.8 64.2933 129.667 67.3066 129.373 69.4133C129.24 70.3733 129.053 71.3333 128.813 72.2399C128.76 72.4266 128.733 72.5866 128.68 72.7466L128.52 73.3066L128.893 72.8533C129 72.7199 129.133 72.5599 129.293 72.3733C129.987 71.5999 130.707 70.8799 131.48 70.1866C133.133 68.7199 135.693 66.8799 138.387 66.5333C140.92 66.1866 143.347 66.3999 145.267 67.0933C147.187 67.7866 148.333 68.9066 148.493 70.2133C148.68 71.5199 147.853 72.9066 146.173 74.0799C144.52 75.2533 142.2 76.0799 139.667 76.3999C139.267 76.4799 138.813 76.5066 138.387 76.5066ZM130.147 73.0666C130.92 73.4666 131.72 73.8399 132.547 74.1599C134.387 74.8799 137.107 75.6799 139.587 75.3599C141.933 75.0399 144.093 74.2933 145.613 73.2266C146.92 72.3199 147.587 71.2799 147.48 70.3733C147.373 69.4933 146.44 68.6666 144.947 68.1066C143.187 67.4666 140.947 67.2799 138.573 67.5999C136.147 67.9199 133.773 69.6266 132.227 71.0133C131.48 71.6533 130.787 72.3466 130.147 73.0666ZM121.72 55.5466C121.507 55.5466 121.293 55.5733 121.107 55.6533C120.28 55.9733 119.693 57.0666 119.507 58.6399C119.293 60.4799 119.667 62.7199 120.52 64.9599C121.4 67.2533 123.613 69.1199 125.32 70.3199C126.12 70.8799 126.947 71.3866 127.8 71.8399C128.013 70.9866 128.173 70.1333 128.307 69.2533C128.573 67.2799 128.707 64.4799 127.8 62.1333C126.947 59.9199 125.693 58.0266 124.28 56.7999C123.373 55.9733 122.467 55.5466 121.72 55.5466ZM133.667 64.5333L133.56 63.8933C133.347 62.6666 133.213 61.4399 133.16 60.2133C133.08 57.9999 133.293 54.8533 134.733 52.5599C136.093 50.3999 137.8 48.6399 139.56 47.6266C141.32 46.5866 142.893 46.4266 144.013 47.1199H144.04C145.16 47.8399 145.667 49.3333 145.507 51.3333C145.347 53.3599 144.52 55.6533 143.16 57.8133C141.72 60.1066 139.213 61.8133 137.373 62.8266C136.52 63.2799 135.64 63.7066 134.76 64.0799C134.573 64.1599 134.413 64.2133 134.253 64.2666L133.667 64.5333ZM142.467 47.7599C141.8 47.7599 140.973 48.0266 140.12 48.5333C138.52 49.4666 136.92 51.0933 135.667 53.1199C134.36 55.1999 134.173 58.1066 134.253 60.1866C134.28 61.1466 134.387 62.1066 134.52 63.0666C135.32 62.7199 136.12 62.3466 136.893 61.9199C138.627 60.9599 140.973 59.3866 142.307 57.2799C143.56 55.2533 144.36 53.1199 144.493 51.2799C144.627 49.7066 144.253 48.5066 143.507 48.0266H143.48C143.187 47.8399 142.84 47.7599 142.467 47.7599Z" fill="#E1E4E5"/>
<path d="M124.013 85.8134C123.613 86.9334 123.213 88.08 122.813 89.2267L122.547 89.2L122.413 89.1467C122.893 87.76 123.347 86.4534 123.8 85.2C129.08 70.6134 133.107 64.3734 134.253 62.7467L134.573 63.0134C133.427 64.64 129.293 71.12 124.013 85.8134ZM30.8133 57.2267C30.8933 56.9334 31.0267 56.5334 31.16 56.0534C31.56 54.6134 31.88 53.1734 32.12 51.7067C32.68 48.2134 32.7867 43.92 31.2133 40.5867C29.5867 37.1467 27.4267 34.4 25.24 32.72C23.0267 31.04 20.92 30.5334 19.3733 31.2534C17.8267 31.9734 16.8667 33.92 16.7333 36.6934C16.6267 39.44 17.3467 42.88 18.9467 46.32C20.52 49.7067 23.6133 52.48 26.3333 54.4534C27.48 55.28 28.6533 56.0267 29.8533 56.72C30.2533 56.9334 30.5733 57.12 30.8133 57.2267ZM52.1467 48.0267C50.6267 47.2267 48.52 47.6 46.2 49.1734C43.9333 50.72 41.5867 53.36 39.8 56.6934C38.04 59.9734 37.64 64.1067 37.6933 67.4667C37.72 69.1467 37.8533 70.5867 37.9867 71.6534C38.04 72.0801 38.0933 72.4534 38.1467 72.7201C38.44 72.6134 38.8133 72.4801 39.2933 72.3201C40.68 71.7867 42.04 71.1734 43.3467 70.48C46.4933 68.8267 49.9867 66.3734 51.7467 63.12C53.5333 59.76 54.44 56.3734 54.4933 53.6267C54.4933 50.8 53.6667 48.8267 52.1467 48.0267ZM43.8533 95.7067C43.9333 96.5334 44.0133 97.1734 44.0667 97.6267C44.2 97.5734 44.3333 97.5467 44.4933 97.4934C45.88 97.0134 48.4933 96.0534 51.1067 94.5067C53.7467 92.96 56.36 90.9067 57.8267 88.2934C59.6933 84.9867 60.6533 81.6001 60.7333 78.8534C60.8133 76.0801 60.0133 74.08 58.52 73.2267C57.0267 72.3734 54.8933 72.72 52.5733 74.2667C50.2533 75.76 47.9067 78.3467 46.04 81.68C44.4133 84.5867 43.8533 88.2134 43.7467 91.3334C43.6667 92.9867 43.7467 94.5067 43.8533 95.7067ZM36.9467 73.1734C36.7333 72.8267 36.4933 72.5067 36.28 72.16C35.4267 70.9334 34.52 69.76 33.5333 68.64C31.1867 65.9734 27.96 63.1467 24.3867 62.24C20.7067 61.28 17.2133 61.2 14.52 61.84C11.8 62.48 10.0933 63.76 9.63999 65.4134C9.21332 67.0667 10.0933 69.04 12.1467 70.9067C14.2 72.7467 17.2933 74.4 20.9733 75.3334C24.5733 76.2667 28.7067 75.68 31.96 74.8267C33.32 74.48 34.6533 74.0534 35.96 73.5467C36.28 73.44 36.6267 73.3067 36.9467 73.1734ZM27.9333 98.1334C31.4267 99.44 35.5867 99.28 38.8933 98.7734C40.28 98.56 41.64 98.2667 43 97.9201C43.4267 97.8134 43.7733 97.7067 44.04 97.6267C43.8533 97.2534 43.6667 96.9067 43.48 96.56C42.76 95.2534 41.9867 94 41.1067 92.7734C39.0533 89.8934 36.1467 86.7467 32.68 85.44C29.1333 84.1067 25.64 83.68 22.92 84C20.1467 84.3467 18.3067 85.44 17.6933 87.0667C17.08 88.6934 17.7733 90.72 19.6133 92.8C21.4533 94.8534 24.36 96.8 27.9333 98.1334Z" fill="white"/>
<path d="M34.28 99.6799C32.12 99.6799 29.8266 99.4132 27.72 98.6399C24.2266 97.3332 21.1866 95.3865 19.1866 93.1732C17.1866 90.9599 16.4666 88.7199 17.16 86.9065C17.8533 85.0665 19.8533 83.8665 22.8133 83.4932C25.7733 83.1199 29.3466 83.6532 32.84 84.9599C36.5733 86.3465 39.6133 89.8132 41.5066 92.4799C42.12 93.3599 42.7066 94.2399 43.24 95.1732C43.16 93.8932 43.1333 92.5599 43.16 91.3065C43.2933 87.3065 44.0933 83.9732 45.5333 81.3865C47.3733 78.1332 49.7466 75.4399 52.2533 73.7865C54.7333 72.1599 57.0266 71.7865 58.7333 72.7199L58.76 72.7465C60.4666 73.7065 61.3466 75.8665 61.2666 78.8532C61.1866 81.8399 60.12 85.2799 58.28 88.5332C56.9466 90.8799 54.6266 93.0399 51.3733 94.9599C48.76 96.4799 46.1466 97.4665 44.76 97.9465V97.9732L44.1466 98.1599C44.0666 98.1865 43.9866 98.2132 43.88 98.2399L43.5866 98.3465C43.4266 98.3999 43.2666 98.4265 43.08 98.4799C41.72 98.8532 40.3066 99.1465 38.92 99.3599C37.6133 99.5199 36.0133 99.6799 34.28 99.6799ZM24.76 84.4265C24.1466 84.4265 23.5333 84.4532 22.9466 84.5332C20.44 84.8532 18.68 85.8399 18.1733 87.2532C17.64 88.6665 18.3066 90.5599 20.0133 92.4532C21.9066 94.5332 24.7866 96.3999 28.12 97.6265C31.64 98.9332 35.88 98.6932 38.8133 98.2399C40.1733 98.0265 41.5333 97.7599 42.8666 97.3865C43 97.3599 43.1333 97.3065 43.2666 97.2799C43.1866 97.1199 43.1066 96.9599 43 96.7999C42.3066 95.5199 41.5066 94.2665 40.68 93.0665C38.8666 90.5332 35.9866 87.2265 32.4933 85.9199C29.8266 84.9599 27.16 84.4265 24.76 84.4265ZM44.3866 95.6532C44.4133 96.0799 44.4666 96.5065 44.52 96.9065C45.88 96.4265 48.36 95.4932 50.8666 94.0265C53.96 92.2132 56.1733 90.1865 57.4 87.9999C59.16 84.8799 60.1466 81.6265 60.2533 78.7999C60.3333 76.2932 59.6133 74.3999 58.3066 73.6799H58.28C56.9733 72.9332 55 73.3065 52.8666 74.6932C50.52 76.2399 48.2533 78.7999 46.4933 81.9199C45.16 84.2932 44.3866 87.5732 44.2533 91.3332C44.2266 92.7199 44.2533 94.2132 44.3866 95.6532ZM43.6133 95.7332L43.8533 95.7065L43.6133 95.7332ZM123.187 89.7865L122.413 89.6799L121.747 89.3865L121.907 88.9332C122.36 87.5732 122.84 86.2665 123.293 84.9865V84.9599C128.6 70.3465 132.68 63.9999 133.8 62.3999L134.12 61.9465L135.267 62.8799L134.973 63.2799C133.853 64.9065 129.747 71.3065 124.467 85.9732C124.067 87.0932 123.667 88.2399 123.267 89.3599L123.187 89.7865ZM25.0266 76.3465C23.64 76.3465 22.2 76.2132 20.8666 75.8665C17.24 74.9332 14.04 73.3065 11.8266 71.3065C9.61331 69.3065 8.65331 67.1732 9.15998 65.2799C9.63998 63.3865 11.5333 61.9732 14.44 61.3065C17.3466 60.6399 20.9466 60.7732 24.5733 61.7065C28.44 62.7199 31.8266 65.8399 33.9866 68.2932C34.9733 69.4132 35.9066 70.6132 36.76 71.8665C37 72.1865 37.2133 72.5332 37.4533 72.8799L37.7733 73.3599L37.6666 72.7732C37.6133 72.4265 37.56 72.0799 37.5066 71.6799C37.3733 70.7199 37.24 69.1999 37.2133 67.4399C37.16 64.3465 37.5066 59.9199 39.4 56.3999C41.16 53.0932 43.5066 50.3732 45.96 48.6932C48.4133 47.0132 50.7333 46.5865 52.44 47.5199C54.1733 48.4532 55.08 50.5865 55.0533 53.5732C55.0266 56.5599 54.0133 60.0265 52.2533 63.3065C50.36 66.8265 46.52 69.3865 43.64 70.8799C42.3066 71.5732 40.92 72.2132 39.5066 72.7465C39.1066 72.9065 38.7333 73.0399 38.36 73.1732L37.7733 73.3599L37.1866 73.5999C36.84 73.7332 36.52 73.8665 36.1733 73.9999C34.8666 74.5065 33.5066 74.9332 32.12 75.3065C30.1466 75.8665 27.6133 76.3465 25.0266 76.3465ZM18.3066 61.9465C17 61.9465 15.7466 62.0799 14.6266 62.3465C12.1733 62.9065 10.52 64.0799 10.1466 65.5465C9.77331 67.0132 10.6266 68.8265 12.4933 70.5065C14.5733 72.3999 17.64 73.9199 21.1066 74.8265C24.76 75.7599 28.9466 75.0665 31.8266 74.3199C33.16 73.9732 34.4666 73.5465 35.7466 73.0665C35.88 73.0132 36.0133 72.9599 36.12 72.9065C36.0133 72.7465 35.9066 72.6132 35.8 72.4532C34.9733 71.2532 34.0666 70.0799 33.08 68.9865C31.0266 66.6399 27.8 63.6799 24.2 62.7465C22.2 62.2132 20.1733 61.9465 18.3066 61.9465ZM50.4133 48.1332C49.2666 48.1332 47.9066 48.6399 46.4933 49.5999C44.1733 51.1732 41.96 53.7865 40.2533 56.9332C38.4666 60.2399 38.1466 64.4799 38.2 67.4399C38.2266 69.1465 38.3866 70.6132 38.4933 71.5465C38.52 71.6799 38.52 71.8132 38.5466 71.9465C38.7066 71.8932 38.8933 71.8132 39.0533 71.7599C40.4133 71.2265 41.7733 70.6399 43.0533 69.9465C45.8 68.5065 49.4533 66.0799 51.2133 62.7999C52.8933 59.6532 53.8533 56.3732 53.88 53.5465C53.9066 51.0132 53.16 49.1465 51.8266 48.4532C51.4533 48.2665 50.9733 48.1332 50.4133 48.1332ZM31.1333 57.9999L30.5733 57.7065C30.28 57.5465 29.96 57.3865 29.6133 57.1732C28.3866 56.4799 27.1866 55.7065 26.04 54.8799C23.5333 53.0665 20.1733 50.1599 18.4933 46.5332C16.8933 43.1465 16.0933 39.6265 16.2266 36.6665C16.36 33.6799 17.4 31.5998 19.16 30.7732C20.92 29.9465 23.2133 30.4799 25.5866 32.2932C27.96 34.1065 30.1466 36.9599 31.72 40.3465C33.4266 43.9732 33.16 48.5599 32.6533 51.7865C32.4133 53.2799 32.0933 54.7465 31.6933 56.2132C31.5866 56.6132 31.4533 57.0132 31.3466 57.3865L31.1333 57.9999ZM20.8933 31.4665C20.4133 31.4665 19.9866 31.5465 19.6133 31.7332C18.2533 32.3732 17.4 34.1865 17.2933 36.7199C17.1866 39.5199 17.9333 42.8532 19.4533 46.1065C21.0533 49.5199 24.2533 52.2932 26.6533 54.0265C27.7733 54.8265 28.9466 55.5732 30.12 56.2399C30.2533 56.3199 30.36 56.3732 30.4933 56.4532C30.5466 56.2665 30.6 56.1065 30.6533 55.9199C31.0533 54.5065 31.3733 53.0665 31.5866 51.6265C32.0666 48.5599 32.3066 44.1865 30.7333 40.7999C29.2133 37.5732 27.16 34.8532 24.92 33.1465C23.48 32.0532 22.0666 31.4665 20.8933 31.4665Z" fill="#E1E4E5"/>
<path d="M29.6666 56.9066C29.72 57.0133 35.32 66.4 41.2666 92.5066C41.72 94.5066 42.1466 96.5066 42.5733 98.5066L42.7066 98.48L43.64 98.2933H43.6666C43.7733 98.2666 44.1466 98.16 44.6533 97.9733C44.2 95.7333 43.6933 93.4933 43.1866 91.28C37.24 65.3333 31.7466 56.1866 31.5066 55.7866L29.6666 56.9066Z" fill="#E1E4E5"/>
<path fill-rule="evenodd" clip-rule="evenodd" d="M117.293 52.6664C117.293 71.2264 102.253 86.2664 83.6933 86.2664C65.1333 86.2664 50.0933 71.2264 50.0933 52.6664C50.0933 34.1064 65.1333 19.0664 83.6933 19.0664C102.253 19.0664 117.293 34.1331 117.293 52.6664Z" fill="white"/>
<path d="M83.6933 90.0265C63.1067 90.0265 46.36 73.2799 46.36 52.6932C46.36 32.1065 63.1067 15.3599 83.6933 15.3599C104.28 15.3599 121.027 32.1065 121.027 52.6932C121.027 73.2799 104.28 90.0265 83.6933 90.0265ZM83.6933 22.8265C67.24 22.8265 53.8267 36.2132 53.8267 52.6932C53.8267 69.1732 67.2133 82.5599 83.6933 82.5599C100.147 82.5599 113.56 69.1732 113.56 52.6932C113.56 36.2132 100.147 22.8265 83.6933 22.8265Z" fill="#FF9BEB"/>
<path d="M124.627 97.3332C123.667 97.3332 122.707 96.9598 121.987 96.2398L107.64 81.8932C106.173 80.4265 106.173 78.0532 107.64 76.6132C109.107 75.1465 111.48 75.1465 112.92 76.6132L127.267 90.9599C128.733 92.4265 128.733 94.7998 127.267 96.2398C126.547 96.9865 125.587 97.3332 124.627 97.3332Z" fill="#FF9BEB"/>
<path d="M31.5067 29.6C29.96 29.6 28.7067 28.3467 28.7067 26.8C28.7067 26.0533 29 25.36 29.5333 24.8267C30.0667 24.2933 30.76 24 31.5067 24C32.2533 24 32.9467 24.2933 33.48 24.8267C34.0133 25.36 34.3067 26.0533 34.3067 26.8C34.3067 27.5467 34.0133 28.24 33.48 28.7733C32.9467 29.3067 32.2533 29.6 31.5067 29.6ZM31.5067 25.68C31.2133 25.68 30.92 25.7867 30.7067 26C30.4933 26.2133 30.3867 26.48 30.3867 26.8C30.3867 27.4133 30.8933 27.92 31.5067 27.92C32.12 27.92 32.6267 27.4133 32.6267 26.8C32.6267 26.1867 32.12 25.68 31.5067 25.68Z" fill="#E1E4E5"/>
<path d="M93.96 11.7336C95.477 11.7336 96.7067 10.5038 96.7067 8.9869C96.7067 7.46996 95.477 6.24023 93.96 6.24023C92.4431 6.24023 91.2134 7.46996 91.2134 8.9869C91.2134 10.5038 92.4431 11.7336 93.96 11.7336Z" fill="#E1E4E5"/>
<path d="M118.093 20.24L118.227 20.08V15.5733C118.227 10.9333 121.987 7.17334 126.627 7.17334H130.12C134.76 7.17334 138.52 10.9333 138.52 15.5733C138.52 20.2133 134.76 23.9733 130.12 23.9733H114.947L118.093 20.24Z" fill="white"/>
<path d="M130.12 24.5332H113.8L117.693 19.8932V15.5998C117.693 10.6665 121.693 6.6665 126.627 6.6665H130.12C135.053 6.6665 139.053 10.6665 139.053 15.5998C139.053 20.5332 135.053 24.5332 130.12 24.5332ZM116.093 23.4665H130.12C134.467 23.4665 137.987 19.9465 137.987 15.5998C137.987 11.2532 134.467 7.73317 130.12 7.73317H126.627C122.28 7.73317 118.76 11.2532 118.76 15.5998V20.2932L116.093 23.4665Z" fill="#E1E4E5"/>
<path d="M124.04 15.573C124.04 16.1597 123.56 16.6397 122.973 16.6397C122.387 16.6397 121.907 16.1597 121.907 15.573C121.907 14.9863 122.387 14.5063 122.973 14.5063C123.56 14.533 124.04 15.013 124.04 15.573ZM129.427 15.573C129.427 16.1597 128.947 16.6397 128.36 16.6397C127.773 16.6397 127.293 16.1597 127.293 15.573C127.293 14.9863 127.773 14.5063 128.36 14.5063C128.973 14.533 129.427 15.013 129.427 15.573ZM134.84 15.573C134.84 16.1597 134.36 16.6397 133.773 16.6397C133.187 16.6397 132.707 16.1597 132.707 15.573C132.707 14.9863 133.187 14.5063 133.773 14.5063C134.36 14.533 134.84 15.013 134.84 15.573Z" fill="#E1E4E5"/>
<path d="M133.773 17.1732C132.893 17.1732 132.173 16.4532 132.173 15.5732C132.173 14.6931 132.893 13.9731 133.773 13.9731C134.653 13.9731 135.373 14.6931 135.373 15.5732C135.373 16.4532 134.653 17.1732 133.773 17.1732ZM133.773 15.0665C133.48 15.0665 133.24 15.3065 133.24 15.5998C133.24 15.8932 133.48 16.1332 133.773 16.1332C134.067 16.1332 134.307 15.8932 134.307 15.5998C134.307 15.3065 134.067 15.0665 133.773 15.0665ZM128.387 17.1732C127.507 17.1732 126.787 16.4532 126.787 15.5732C126.787 14.6931 127.507 13.9731 128.387 13.9731C129.267 13.9731 129.987 14.6931 129.987 15.5732C129.96 16.4532 129.267 17.1732 128.387 17.1732ZM128.387 15.0665C128.093 15.0665 127.853 15.3065 127.853 15.5998C127.853 15.8932 128.093 16.1332 128.387 16.1332C128.68 16.1332 128.92 15.8932 128.92 15.5998C128.893 15.3065 128.653 15.0665 128.387 15.0665ZM122.973 17.1732C122.093 17.1732 121.373 16.4532 121.373 15.5732C121.373 14.6931 122.093 13.9731 122.973 13.9731C123.853 13.9731 124.573 14.6931 124.573 15.5732C124.573 16.4532 123.853 17.1732 122.973 17.1732ZM122.973 15.0665C122.68 15.0665 122.44 15.3065 122.44 15.5998C122.44 15.8932 122.68 16.1332 122.973 16.1332C123.267 16.1332 123.507 15.8932 123.507 15.5998C123.507 15.3065 123.267 15.0665 122.973 15.0665Z" fill="#E1E4E5"/>
<path d="M106.307 104.533H76.3601C76.0667 104.533 75.8267 104.293 75.8267 104C75.8267 103.707 76.0667 103.467 76.3601 103.467H106.28C106.573 103.467 106.813 103.707 106.813 104C106.813 104.293 106.6 104.533 106.307 104.533ZM69.8267 104.427H62.6267C62.3334 104.427 62.0934 104.187 62.0934 103.893C62.0934 103.6 62.3334 103.36 62.6267 103.36H69.8267C70.1201 103.36 70.3601 103.6 70.3601 103.893C70.3601 104.187 70.1201 104.427 69.8267 104.427ZM106.307 97.8133H95.6134C95.3201 97.8133 95.0801 97.5733 95.0801 97.2799C95.0801 96.9866 95.3201 96.7466 95.6134 96.7466H106.307C106.6 96.7466 106.84 96.9866 106.84 97.2799C106.84 97.5733 106.6 97.8133 106.307 97.8133ZM87.6667 97.8133H62.6267C62.3334 97.8133 62.0934 97.5733 62.0934 97.2799C62.0934 96.9866 62.3334 96.7466 62.6267 96.7466H87.6667C87.9601 96.7466 88.2001 96.9866 88.2001 97.2799C88.2001 97.5733 87.9601 97.8133 87.6667 97.8133Z" fill="#E1E4E5"/>
<path d="M4.25331 47.7065C3.95997 47.3865 3.69331 47.0665 3.45331 46.7198L3.69331 46.5331C3.93331 46.8798 4.19998 47.1998 4.49331 47.4931L4.25331 47.7065ZM2.73331 45.6265C2.51997 45.2531 2.30664 44.8798 2.14664 44.4798L2.41331 44.3465C2.59998 44.7198 2.78664 45.0931 2.99997 45.4665L2.73331 45.6265ZM1.63997 43.3065C1.50664 42.9065 1.37331 42.5065 1.23997 42.0798L1.53331 41.9998C1.63998 42.3998 1.77331 42.7998 1.93331 43.1998L1.63997 43.3065ZM0.946643 40.8531C0.866643 40.4265 0.786642 40.0265 0.733309 39.5998L1.02664 39.5731C1.07998 39.9998 1.13331 40.3998 1.21331 40.8265L0.946643 40.8531ZM0.626644 38.2931C0.599977 37.9998 0.599976 37.6798 0.599976 37.3865C0.599976 37.2531 0.599976 37.1465 0.599976 37.0131H0.89331C0.89331 37.1465 0.89331 37.2531 0.89331 37.3865C0.89331 37.6798 0.893308 37.9731 0.919975 38.2665L0.626644 38.2931ZM0.999975 35.7865L0.706641 35.7598C0.733307 35.3331 0.786642 34.9065 0.866642 34.4798L1.15998 34.5331C1.07998 34.9331 1.02664 35.3598 0.999975 35.7865ZM1.39998 33.2798L1.10664 33.1998C1.21331 32.7731 1.31998 32.3731 1.42664 31.9731L1.71997 32.0531C1.58664 32.4798 1.47998 32.8798 1.39998 33.2798ZM2.11997 30.8798L1.82664 30.7731C1.98664 30.3731 2.14664 29.9731 2.33331 29.5998L2.59997 29.7331C2.43997 30.1065 2.27997 30.5065 2.11997 30.8798ZM3.21331 28.6131L2.94664 28.4531C3.15998 28.0798 3.39997 27.7065 3.63997 27.3598L3.87998 27.5465C3.63998 27.8931 3.42664 28.2665 3.21331 28.6131ZM4.65331 26.5598L4.41331 26.3731C4.67997 26.0531 4.97331 25.7331 5.26664 25.4131L5.47997 25.6265C5.18664 25.9198 4.91997 26.2398 4.65331 26.5598ZM6.38664 24.7731L6.19997 24.5331C6.51997 24.2665 6.86664 23.9998 7.21331 23.7598L7.39997 23.9998C7.05331 24.2398 6.70664 24.5065 6.38664 24.7731ZM8.43997 23.3331L8.27997 23.0665C8.65331 22.8531 9.02664 22.6665 9.42664 22.4798L9.55997 22.7465C9.18664 22.9331 8.8133 23.1198 8.43997 23.3331ZM10.7333 22.2931L10.6266 21.9998C11.0266 21.8665 11.4266 21.7331 11.8533 21.6265L11.9333 21.9198C11.5066 22.0265 11.1066 22.1331 10.7333 22.2931Z" fill="#E1E4E5"/>
<path d="M5.32004 48.7467C5.08004 48.5334 4.84004 48.32 4.62671 48.08L4.84004 47.8667C5.05337 48.08 5.29337 48.2934 5.53337 48.5067L5.32004 48.7467Z" fill="#E1E4E5"/>
<path d="M5.50671 45.9732C6.97337 46.0532 8.12004 47.3065 8.04004 48.7732C7.96004 50.2399 6.70671 51.3865 5.24004 51.3065C3.77337 51.2265 2.6267 49.9732 2.7067 48.5065C2.76004 47.0399 4.01337 45.8932 5.50671 45.9732Z" fill="#E1E4E5"/>
<path d="M43.1866 22.6134L42.8933 22.5868C42.92 22.1601 42.9733 21.7334 43.0533 21.3068L43.3466 21.3601C43.2666 21.7868 43.2133 22.1868 43.1866 22.6134ZM43.5866 20.1334L43.2933 20.0534C43.4 19.6268 43.5333 19.2268 43.6666 18.8268L43.96 18.9334C43.8 19.3334 43.6933 19.7334 43.5866 20.1334ZM44.4133 17.7868L44.1466 17.6534C44.3333 17.2534 44.52 16.8801 44.7333 16.5068L45 16.6668C44.7866 17.0401 44.6 17.4134 44.4133 17.7868ZM45.6666 15.6001L45.4266 15.4134C45.6666 15.0668 45.9333 14.7201 46.2 14.4001L46.44 14.5868C46.1733 14.9334 45.9066 15.2801 45.6666 15.6001ZM47.2933 13.6801L47.08 13.4668C47.3733 13.1734 47.6933 12.8801 48.0133 12.5868L48.2 12.8268C47.88 13.1201 47.5866 13.3868 47.2933 13.6801ZM49.2133 12.0534L49.0266 11.8134C49.3733 11.5734 49.72 11.3334 50.0933 11.0934L50.2533 11.3601C49.88 11.5734 49.5333 11.8134 49.2133 12.0534ZM51.3466 10.7468L51.2133 10.4801C51.5866 10.2934 51.9866 10.1068 52.36 9.92009L52.4933 10.2134C52.0933 10.3734 51.72 10.5601 51.3466 10.7468ZM67 10.6934C66.6533 10.4801 66.28 10.2668 65.9066 10.0801L66.04 9.81343C66.44 10.0001 66.8133 10.2134 67.16 10.4268L67 10.6934ZM53.64 9.73342L53.5333 9.44009C53.9333 9.30676 54.3333 9.17342 54.76 9.06676L54.84 9.36009C54.44 9.46676 54.04 9.60009 53.64 9.73342ZM64.76 9.60009C64.36 9.46676 63.96 9.33342 63.56 9.22676L63.64 8.93342C64.0666 9.04009 64.4666 9.17343 64.8666 9.30676L64.76 9.60009ZM56.0666 9.06676L56.0133 8.77343C56.44 8.69343 56.8666 8.61342 57.2666 8.56009L57.2933 8.85342C56.8933 8.90676 56.4933 8.98676 56.0666 9.06676ZM62.3333 8.96009C61.9333 8.88009 61.5066 8.82676 61.08 8.80009L61.1066 8.50676C61.5333 8.53343 61.96 8.61342 62.3866 8.66676L62.3333 8.96009ZM58.5733 8.74676L58.5466 8.45342C58.9733 8.42676 59.4 8.42676 59.8266 8.42676V8.72009C59.4 8.72009 59 8.72009 58.5733 8.74676Z" fill="#E1E4E5"/>
<path d="M147.32 16.6667L147.08 16.5067C147.267 16.2401 147.453 15.9734 147.64 15.7334L147.88 15.9201C147.667 16.1601 147.48 16.4001 147.32 16.6667Z" fill="#E1E4E5"/>
<path d="M65.6933 11.9732C66.04 13.4132 67.4533 14.3198 68.8933 13.9732C70.3333 13.6532 71.24 12.2132 70.8933 10.7732C70.5467 9.33316 69.1333 8.42649 67.6933 8.77316C66.2533 9.09316 65.3467 10.5332 65.6933 11.9732Z" fill="#E1E4E5"/>
<path d="M106.147 10.1068C106.04 9.70676 105.88 9.30676 105.72 8.93342L106.013 8.80009C106.173 9.20009 106.333 9.60009 106.44 10.0001L106.147 10.1068ZM105.16 7.78676C104.947 7.44009 104.733 7.06676 104.493 6.72009L104.733 6.53342C104.973 6.88009 105.213 7.25342 105.427 7.62676L105.16 7.78676ZM103.72 5.76009C103.453 5.44009 103.16 5.14676 102.84 4.85342L103.053 4.64009C103.373 4.93343 103.667 5.25342 103.933 5.57342L103.72 5.76009ZM101.907 4.02676C101.587 3.76009 101.24 3.52009 100.893 3.28009L101.053 3.01343C101.4 3.25343 101.747 3.49342 102.093 3.76009L101.907 4.02676ZM84.5999 3.84009L84.3866 3.62676C84.7066 3.33342 85.0266 3.06676 85.3733 2.80009L85.5599 3.04009C85.2399 3.28009 84.9199 3.54676 84.5999 3.84009ZM99.8 2.64009C99.4266 2.42676 99.0533 2.24009 98.6799 2.08009L98.8133 1.81343C99.2133 2.00009 99.5866 2.18676 99.9599 2.40009L99.8 2.64009ZM86.6266 2.34676L86.4666 2.08009C86.8399 1.86676 87.2133 1.65342 87.6133 1.49342L87.7466 1.76009C87.3466 1.94676 86.9733 2.13343 86.6266 2.34676ZM97.5333 1.60009C97.1333 1.46676 96.7333 1.33342 96.3333 1.22676L96.4133 0.933425C96.8133 1.04009 97.24 1.17343 97.64 1.30676L97.5333 1.60009ZM88.8933 1.30676L88.7866 1.01343C89.1866 0.880092 89.6133 0.773424 90.0399 0.693424L90.0933 0.986757C89.6933 1.06676 89.2933 1.17343 88.8933 1.30676ZM95.1066 0.933425C94.68 0.853425 94.2799 0.800092 93.8533 0.773425L93.8799 0.480092C94.3066 0.506759 94.7333 0.560092 95.1599 0.640092L95.1066 0.933425ZM91.3466 0.800092L91.3199 0.506759C91.7466 0.453425 92.1733 0.426758 92.5999 0.426758V0.720091C92.1733 0.720091 91.7733 0.746758 91.3466 0.800092Z" fill="#E1E4E5"/>
<path d="M104.68 10.3735C104.04 11.4668 104.413 12.8535 105.48 13.4935C106.547 14.1335 107.96 13.7602 108.6 12.6935C109.24 11.6002 108.867 10.2135 107.8 9.57348C106.733 8.93348 105.32 9.28015 104.68 10.3735C104.707 10.3735 104.707 10.3735 104.68 10.3735Z" fill="#E1E4E5"/>
<path d="M6.12 88.3464C5.90667 88.3464 5.72 88.2664 5.56 88.1064C5.48 88.0264 5.42667 87.9198 5.4 87.8398L4.25333 84.2131C4.17333 83.9464 4.25333 83.6264 4.46666 83.4398L7.29334 80.8798C7.45334 80.7464 7.64 80.6664 7.82667 80.6931C8.01334 80.6931 8.2 80.7998 8.33334 80.9331C8.41334 81.0131 8.46667 81.0931 8.49334 81.1998L9.64 84.8264C9.72 85.0931 9.64001 85.4131 9.42667 85.5998L6.6 88.1598C6.46667 88.2664 6.30667 88.3464 6.12 88.3464ZM5.16 84.0264L6.2 87.3064L8.73334 84.9864L7.69334 81.7064L5.16 84.0264Z" fill="#E1E4E5"/>
<path d="M125.613 39.0665C125.187 39.0665 124.813 38.7199 124.787 38.2665C124.787 38.1332 124.787 38.0265 124.84 37.9199L126.493 33.6532C126.6 33.3599 126.893 33.1465 127.213 33.1199L131.773 32.8532C131.987 32.8265 132.2 32.9065 132.387 33.0665C132.573 33.2265 132.653 33.4132 132.653 33.6532C132.653 33.7599 132.653 33.8932 132.6 33.9999L130.947 38.2665C130.84 38.5599 130.547 38.7732 130.227 38.7999L125.667 39.0665C125.64 39.0665 125.613 39.0665 125.613 39.0665ZM127.453 34.2399L126.013 37.9465L129.987 37.7065L131.427 33.9999L127.453 34.2399Z" fill="#E1E4E5"/>
<path d="M52.6 24.6134C50.8933 23.7867 50.12 21.76 50.8666 20.08C51.6133 18.4 53.6133 17.7334 55.32 18.5867" fill="#E1E4E5"/>
</svg>
