<svg width="24" height="24" viewBox="0 0 24 24" fill="none" xmlns="http://www.w3.org/2000/svg">
<path d="M17.0344 11.4657L9.53438 3.96565C9.42594 3.86391 9.29091 3.79494 9.14491 3.76674C8.99891 3.73853 8.84791 3.75224 8.70938 3.80627C8.57288 3.86365 8.45641 3.96015 8.37467 4.08361C8.29292 4.20706 8.24954 4.35196 8.25 4.50002V19.5C8.24954 19.6481 8.29292 19.793 8.37467 19.9164C8.45641 20.0399 8.57288 20.1364 8.70938 20.1938C8.80189 20.2305 8.90047 20.2496 9 20.25C9.19916 20.2492 9.39041 20.172 9.53438 20.0344L17.0344 12.5344C17.1752 12.3922 17.2542 12.2002 17.2542 12C17.2542 11.7999 17.1752 11.6078 17.0344 11.4657V11.4657Z" fill="#E60013"/>
</svg>
