<svg width="18" height="18" viewBox="0 0 18 18" fill="none" xmlns="http://www.w3.org/2000/svg">
<path d="M15.75 15.75L11.25 11.25M12.75 7.5C12.75 8.53835 12.4421 9.55339 11.8652 10.4167C11.2883 11.2801 10.4684 11.953 9.50909 12.3504C8.54978 12.7477 7.49418 12.8517 6.47578 12.6491C5.45738 12.4466 4.52192 11.9465 3.78769 11.2123C3.05347 10.4781 2.55345 9.54262 2.35088 8.52422C2.14831 7.50582 2.25227 6.45022 2.64963 5.49091C3.04699 4.5316 3.7199 3.71166 4.58326 3.13478C5.44662 2.55791 6.46165 2.25 7.5 2.25C8.89239 2.25 10.2277 2.80312 11.2123 3.78769C12.1969 4.77226 12.75 6.10761 12.75 7.5V7.5Z" stroke="#E94747" stroke-linecap="round" stroke-linejoin="round"/>
</svg>
