<svg width="24" height="24" viewBox="0 0 24 24" fill="none" xmlns="http://www.w3.org/2000/svg">
<path d="M22.3782 6.89053C22.1637 6.71145 21.9032 6.59628 21.6263 6.55815C21.3495 6.52003 21.0675 6.56048 20.8126 6.67491L16.0689 8.78428L13.3126 3.81553C13.1809 3.58355 12.99 3.39064 12.7594 3.25643C12.5289 3.12222 12.2669 3.05151 12.0001 3.05151C11.7333 3.05151 11.4713 3.12222 11.2408 3.25643C11.0102 3.39064 10.8193 3.58355 10.6876 3.81553L7.93135 8.78428L3.1876 6.67491C2.93214 6.56065 2.64981 6.52014 2.37252 6.55795C2.09524 6.59576 1.83407 6.71039 1.61852 6.88887C1.40298 7.06735 1.24166 7.30257 1.15281 7.56794C1.06396 7.83331 1.05111 8.11824 1.11573 8.39053L3.49698 18.5437C3.54251 18.7402 3.62747 18.9255 3.74672 19.0883C3.86597 19.251 4.01702 19.3879 4.19073 19.4905C4.42589 19.6313 4.69477 19.7058 4.96885 19.7062C5.10209 19.7059 5.23463 19.687 5.3626 19.6499C9.70306 18.4499 14.2878 18.4499 18.6282 19.6499C19.0245 19.7541 19.446 19.6968 19.8001 19.4905C19.9749 19.3892 20.1267 19.2527 20.2461 19.0897C20.3655 18.9268 20.4499 18.7408 20.4939 18.5437L22.8845 8.39053C22.9484 8.11817 22.9348 7.83337 22.8454 7.56831C22.7559 7.30324 22.5941 7.06848 22.3782 6.89053V6.89053ZM15.7501 15.2343C15.7294 15.4191 15.6417 15.5899 15.5034 15.7144C15.3652 15.8388 15.1861 15.9081 15.0001 15.9093H14.9251C12.9801 15.7124 11.0201 15.7124 9.0751 15.9093C8.87746 15.9303 8.67955 15.872 8.52486 15.7472C8.37017 15.6224 8.27135 15.4413 8.2501 15.2437C8.23172 15.045 8.29222 14.8472 8.41852 14.6928C8.54482 14.5384 8.72679 14.44 8.9251 14.4187C10.9694 14.203 13.0308 14.203 15.0751 14.4187C15.2717 14.44 15.4521 14.5371 15.5782 14.6894C15.7042 14.8417 15.7659 15.0372 15.7501 15.2343V15.2343Z" fill="#FFD646"/>
</svg>
