<svg width="24" height="24" viewBox="0 0 24 24" fill="none" xmlns="http://www.w3.org/2000/svg">
<path d="M12 2.25C10.0716 2.25 8.18657 2.82183 6.58319 3.89317C4.97981 4.96452 3.73013 6.48726 2.99218 8.26884C2.25422 10.0504 2.06114 12.0108 2.43735 13.9021C2.81355 15.7934 3.74215 17.5307 5.10571 18.8943C6.46927 20.2579 8.20656 21.1865 10.0979 21.5627C11.9892 21.9389 13.9496 21.7458 15.7312 21.0078C17.5127 20.2699 19.0355 19.0202 20.1068 17.4168C21.1782 15.8134 21.75 13.9284 21.75 12C21.745 9.41566 20.7162 6.93859 18.8888 5.11118C17.0614 3.28378 14.5843 2.25496 12 2.25V2.25ZM15.375 9C15.5975 9 15.815 9.06598 16 9.1896C16.185 9.31321 16.3292 9.48891 16.4144 9.69448C16.4995 9.90005 16.5218 10.1262 16.4784 10.3445C16.435 10.5627 16.3278 10.7632 16.1705 10.9205C16.0132 11.0778 15.8127 11.185 15.5945 11.2284C15.3762 11.2718 15.15 11.2495 14.9445 11.1644C14.7389 11.0792 14.5632 10.935 14.4396 10.75C14.316 10.565 14.25 10.3475 14.25 10.125C14.25 9.82663 14.3685 9.54048 14.5795 9.3295C14.7905 9.11853 15.0766 9 15.375 9ZM8.625 9C8.84751 9 9.06501 9.06598 9.25002 9.1896C9.43502 9.31321 9.57922 9.48891 9.66437 9.69448C9.74952 9.90005 9.77179 10.1262 9.72839 10.3445C9.68498 10.5627 9.57783 10.7632 9.4205 10.9205C9.26316 11.0778 9.06271 11.185 8.84448 11.2284C8.62625 11.2718 8.40005 11.2495 8.19448 11.1644C7.98892 11.0792 7.81322 10.935 7.6896 10.75C7.56598 10.565 7.5 10.3475 7.5 10.125C7.5 9.82663 7.61853 9.54048 7.82951 9.3295C8.04049 9.11853 8.32663 9 8.625 9ZM16.275 17.1469C16.162 17.2154 16.0321 17.2511 15.9 17.25C15.7682 17.2525 15.6383 17.2189 15.5242 17.1528C15.4102 17.0867 15.3164 16.9906 15.2531 16.875C14.9228 16.3047 14.4484 15.8313 13.8774 15.5022C13.3065 15.173 12.659 14.9998 12 14.9998C11.341 14.9998 10.6935 15.173 10.1226 15.5022C9.55159 15.8313 9.07718 16.3047 8.74688 16.875C8.70215 16.9683 8.63862 17.0512 8.56028 17.1188C8.48193 17.1863 8.39047 17.2369 8.29164 17.2674C8.1928 17.2978 8.08874 17.3075 7.98597 17.2959C7.88321 17.2842 7.78397 17.2514 7.69449 17.1995C7.60502 17.1476 7.52723 17.0778 7.46603 16.9944C7.40484 16.9111 7.36154 16.8159 7.33887 16.715C7.31621 16.6141 7.31466 16.5096 7.33432 16.4081C7.35398 16.3065 7.39443 16.2102 7.45313 16.125C7.91388 15.3268 8.57664 14.6639 9.37479 14.2031C10.1729 13.7422 11.0784 13.4996 12 13.4996C12.9217 13.4996 13.8271 13.7422 14.6252 14.2031C15.4234 14.6639 16.0861 15.3268 16.5469 16.125C16.6457 16.2967 16.6726 16.5005 16.6217 16.692C16.5707 16.8835 16.4461 17.047 16.275 17.1469Z" fill="#FFCF24"/>
</svg>
