<svg width="24" height="24" viewBox="0 0 24 24" fill="none" xmlns="http://www.w3.org/2000/svg">
<path d="M18.4781 6.2437C17.2594 4.2937 15.675 2.61557 14.2969 1.23745C14.2119 1.15321 14.108 1.09053 13.9938 1.05465C13.8796 1.01877 13.7585 1.01073 13.6406 1.0312C13.5219 1.0499 13.4095 1.09723 13.3131 1.1691C13.2167 1.24097 13.1393 1.33521 13.0875 1.4437L10.1906 7.5187L7.17188 5.50307C7.0063 5.39347 6.80437 5.35309 6.60938 5.39057C6.51264 5.40966 6.42062 5.44764 6.33857 5.50234C6.25653 5.55703 6.18608 5.62737 6.13125 5.70932C4.30313 8.46557 3.375 10.9593 3.375 13.1249C3.375 15.4124 4.2837 17.6062 5.9012 19.2237C7.51871 20.8412 9.71251 21.7499 12 21.7499C14.2875 21.7499 16.4813 20.8412 18.0988 19.2237C19.7163 17.6062 20.625 15.4124 20.625 13.1249C20.625 10.7906 19.9219 8.54057 18.4781 6.2437ZM17.5594 13.9874C17.382 15.1698 16.8301 16.2642 15.9846 17.1096C15.1392 17.955 14.0449 18.507 12.8625 18.6843H12.75C12.5618 18.6829 12.3811 18.6108 12.2436 18.4824C12.1061 18.3539 12.0219 18.1784 12.0077 17.9908C11.9935 17.8031 12.0504 17.617 12.1671 17.4694C12.2838 17.3217 12.4517 17.2233 12.6375 17.1937C13.4994 17.0536 14.2954 16.6459 14.9129 16.0285C15.5304 15.411 15.938 14.615 16.0781 13.7531C16.0885 13.6521 16.1193 13.5542 16.1686 13.4654C16.2179 13.3767 16.2847 13.2988 16.365 13.2367C16.4453 13.1745 16.5374 13.1293 16.6357 13.1038C16.734 13.0782 16.8364 13.0729 16.9368 13.0882C17.0372 13.1034 17.1335 13.1389 17.2198 13.1925C17.306 13.246 17.3805 13.3165 17.4388 13.3998C17.497 13.483 17.5377 13.5771 17.5584 13.6765C17.5791 13.7759 17.5795 13.8785 17.5594 13.9781V13.9874Z" fill="#F87BDF"/>
</svg>
