<svg width="14" height="14" viewBox="0 0 14 14" fill="none" xmlns="http://www.w3.org/2000/svg">
<g clip-path="url(#clip0_334_4572)">
<path d="M5.6875 0.875H8.3125C8.42853 0.875 8.53981 0.828906 8.62186 0.746859C8.70391 0.664812 8.75 0.553532 8.75 0.4375C8.75 0.321468 8.70391 0.210188 8.62186 0.128141C8.53981 0.0460936 8.42853 0 8.3125 0L5.6875 0C5.57147 0 5.46019 0.0460936 5.37814 0.128141C5.29609 0.210188 5.25 0.321468 5.25 0.4375C5.25 0.553532 5.29609 0.664812 5.37814 0.746859C5.46019 0.828906 5.57147 0.875 5.6875 0.875V0.875Z" fill="#F87BDF"/>
<path d="M7 1.75C5.96165 1.75 4.94661 2.05791 4.08325 2.63478C3.2199 3.21166 2.54699 4.0316 2.14963 4.99091C1.75227 5.95022 1.6483 7.00582 1.85088 8.02422C2.05345 9.04263 2.55346 9.97809 3.28769 10.7123C4.02191 11.4465 4.95737 11.9466 5.97577 12.1491C6.99417 12.3517 8.04977 12.2477 9.00909 11.8504C9.9684 11.453 10.7883 10.7801 11.3652 9.91675C11.9421 9.05339 12.25 8.03835 12.25 7C12.2471 5.6085 11.6931 4.27482 10.7091 3.29088C9.72518 2.30694 8.3915 1.75289 7 1.75V1.75ZM9.47734 5.14609L7.31172 7.31172C7.22809 7.39258 7.11632 7.43778 7 7.43778C6.88368 7.43778 6.7719 7.39258 6.68828 7.31172C6.60613 7.22877 6.56004 7.11675 6.56004 7C6.56004 6.88325 6.60613 6.77123 6.68828 6.68828L8.8539 4.52266C8.89313 4.47486 8.94193 4.43581 8.99716 4.40801C9.05239 4.38021 9.11283 4.36428 9.17459 4.36125C9.23634 4.35821 9.29805 4.36814 9.35574 4.3904C9.41343 4.41265 9.46582 4.44673 9.50954 4.49046C9.55326 4.53418 9.58735 4.58657 9.6096 4.64426C9.63186 4.70195 9.64178 4.76365 9.63875 4.82541C9.63572 4.88717 9.61979 4.94761 9.59199 5.00284C9.56419 5.05807 9.52514 5.10687 9.47734 5.14609V5.14609Z" fill="#F87BDF"/>
</g>
<defs>
<clipPath id="clip0_334_4572">
<rect width="14" height="14" fill="white"/>
</clipPath>
</defs>
</svg>
