<svg width="24" height="24" viewBox="0 0 24 24" fill="none" xmlns="http://www.w3.org/2000/svg">
<path d="M19.5 3H17.25V2.25C17.25 2.05109 17.171 1.86032 17.0303 1.71967C16.8897 1.57902 16.6989 1.5 16.5 1.5C16.3011 1.5 16.1103 1.57902 15.9697 1.71967C15.829 1.86032 15.75 2.05109 15.75 2.25V3H8.25V2.25C8.25 2.05109 8.17098 1.86032 8.03033 1.71967C7.88968 1.57902 7.69891 1.5 7.5 1.5C7.30109 1.5 7.11032 1.57902 6.96967 1.71967C6.82902 1.86032 6.75 2.05109 6.75 2.25V3H4.5C4.10218 3 3.72064 3.15804 3.43934 3.43934C3.15804 3.72064 3 4.10218 3 4.5V19.5C3 19.8978 3.15804 20.2794 3.43934 20.5607C3.72064 20.842 4.10218 21 4.5 21H19.5C19.8978 21 20.2794 20.842 20.5607 20.5607C20.842 20.2794 21 19.8978 21 19.5V4.5C21 4.10218 20.842 3.72064 20.5607 3.43934C20.2794 3.15804 19.8978 3 19.5 3V3ZM9.75 17.625C9.15311 17.6244 8.58049 17.3886 8.15625 16.9688C8.01599 16.8282 7.93722 16.6377 7.93722 16.4391C7.93722 16.2405 8.01599 16.05 8.15625 15.9094C8.22523 15.8388 8.30762 15.7827 8.39858 15.7444C8.48955 15.7061 8.58724 15.6864 8.68594 15.6864C8.78463 15.6864 8.88233 15.7061 8.97329 15.7444C9.06425 15.7827 9.14665 15.8388 9.21563 15.9094C9.35959 16.047 9.55084 16.1242 9.75 16.125C9.94891 16.125 10.1397 16.046 10.2803 15.9053C10.421 15.7647 10.5 15.5739 10.5 15.375C10.5 15.1761 10.421 14.9853 10.2803 14.8447C10.1397 14.704 9.94891 14.625 9.75 14.625H9.51562L9.47812 14.6063H9.45L9.40313 14.5875H9.39375L9.3375 14.55H9.31875L9.28125 14.5219L9.24375 14.4938L9.225 14.475L9.19687 14.4469C9.14774 14.3903 9.10672 14.3272 9.075 14.2594C9.04806 14.2095 9.02908 14.1557 9.01875 14.1V14.1C9.00937 14.0906 9.00937 14.0813 9.00937 14.0625C9.00981 14.0574 9.0092 14.0523 9.00758 14.0475C9.00597 14.0426 9.00339 14.0382 9 14.0344V13.875V13.8094C9 13.7906 9.00937 13.7812 9.00937 13.7719V13.7344C9.01683 13.7234 9.02015 13.7101 9.01875 13.6969C9.02812 13.6875 9.02813 13.6781 9.02813 13.6594L9.04688 13.6312C9.04688 13.6125 9.04687 13.6031 9.05625 13.5938L9.075 13.5563V13.5281L9.09375 13.4906L9.1125 13.4625L9.14062 13.425L9.15937 13.4062L9.68438 12.75H8.625C8.42609 12.75 8.23532 12.671 8.09467 12.5303C7.95402 12.3897 7.875 12.1989 7.875 12C7.875 11.8011 7.95402 11.6103 8.09467 11.4697C8.23532 11.329 8.42609 11.25 8.625 11.25H11.25C11.3909 11.2508 11.5288 11.2913 11.6478 11.3668C11.7668 11.4424 11.8621 11.5499 11.9227 11.6771C11.9834 11.8043 12.007 11.9461 11.9908 12.0861C11.9746 12.2261 11.9193 12.3587 11.8312 12.4688L11.0063 13.5094C11.4057 13.7787 11.7082 14.1691 11.8692 14.6232C12.0302 15.0773 12.0411 15.5711 11.9005 16.0319C11.7598 16.4927 11.475 16.8961 11.0879 17.1829C10.7007 17.4697 10.2318 17.6247 9.75 17.625V17.625ZM15.75 16.875C15.75 17.0739 15.671 17.2647 15.5303 17.4053C15.3897 17.546 15.1989 17.625 15 17.625C14.8011 17.625 14.6103 17.546 14.4697 17.4053C14.329 17.2647 14.25 17.0739 14.25 16.875V13.5L13.95 13.725C13.79 13.8419 13.5907 13.8917 13.3945 13.8637C13.1983 13.8357 13.0208 13.7321 12.9 13.575C12.7807 13.4159 12.7294 13.2158 12.7575 13.0189C12.7857 12.822 12.8909 12.6443 13.05 12.525L14.55 11.4C14.6614 11.3164 14.7939 11.2655 14.9326 11.253C15.0714 11.2405 15.2108 11.2669 15.3354 11.3292C15.46 11.3915 15.5648 11.4872 15.638 11.6057C15.7112 11.7242 15.75 11.8607 15.75 12V16.875ZM19.5 7.5H4.5V4.5H6.75V5.25C6.75 5.44891 6.82902 5.63968 6.96967 5.78033C7.11032 5.92098 7.30109 6 7.5 6C7.69891 6 7.88968 5.92098 8.03033 5.78033C8.17098 5.63968 8.25 5.44891 8.25 5.25V4.5H15.75V5.25C15.75 5.44891 15.829 5.63968 15.9697 5.78033C16.1103 5.92098 16.3011 6 16.5 6C16.6989 6 16.8897 5.92098 17.0303 5.78033C17.171 5.63968 17.25 5.44891 17.25 5.25V4.5H19.5V7.5Z" fill="#E60013"/>
</svg>
