<svg width="18" height="18" viewBox="0 0 18 18" fill="none" xmlns="http://www.w3.org/2000/svg">
<path d="M17.3884 8.775C17.3673 8.71875 16.7696 7.39688 15.4478 6.06797C13.6829 4.31016 11.454 3.375 9.00011 3.375C6.5462 3.375 4.31729 4.31016 2.55245 6.06797C1.23057 7.39688 0.632913 8.71875 0.611819 8.775C0.580427 8.84586 0.564209 8.9225 0.564209 9C0.564209 9.0775 0.580427 9.15414 0.611819 9.225C0.632913 9.28125 1.23057 10.6031 2.55245 11.932C4.31729 13.6898 6.5462 14.625 9.00011 14.625C11.454 14.625 13.6829 13.6898 15.4478 11.932C16.7696 10.6031 17.3673 9.28125 17.3884 9.225C17.4198 9.15414 17.436 9.0775 17.436 9C17.436 8.9225 17.4198 8.84586 17.3884 8.775V8.775ZM9.00011 6.46875C9.50074 6.46875 9.99013 6.61721 10.4064 6.89534C10.8227 7.17348 11.1471 7.56881 11.3387 8.03133C11.5303 8.49386 11.5804 9.00281 11.4827 9.49382C11.3851 9.98484 11.144 10.4359 10.79 10.7899C10.436 11.1439 9.98494 11.3849 9.49393 11.4826C9.00291 11.5803 8.49396 11.5302 8.03144 11.3386C7.56891 11.147 7.17358 10.8225 6.89545 10.4063C6.61731 9.99003 6.46885 9.50063 6.46885 9C6.46885 8.32867 6.73554 7.68484 7.21024 7.21014C7.68494 6.73543 8.32878 6.46875 9.00011 6.46875V6.46875Z" fill="#E60013"/>
</svg>
