<svg width="62" height="64" viewBox="0 0 62 64" fill="none" xmlns="http://www.w3.org/2000/svg">
<g clip-path="url(#clip0_340_4733)">
<path fill-rule="evenodd" clip-rule="evenodd" d="M0.735596 3.78703V42.0708C0.735596 44.1488 2.38695 45.8317 4.42627 45.8317H26.7928L36.5562 31.8097C37.0217 31.1408 38.1856 31.1408 38.6512 31.8097L42.0694 36.7199L42.096 36.7582L42.1191 36.7244L49.4501 25.9996C49.9571 25.257 51.2273 25.257 51.7342 25.9996L61.4433 40.205V42.0753V3.78703C61.4433 1.70902 59.7874 0.0263367 57.7525 0.0263367H4.42627C2.38695 0.0263367 0.735596 1.70902 0.735596 3.78703V3.78703Z" fill="#FF9BEB"/>
<path d="M17.8556 29.2341C12.5769 29.2341 8.29785 24.9225 8.29785 19.6039C8.29785 14.2855 12.5769 9.97389 17.8556 9.97389C23.1342 9.97389 27.4135 14.2855 27.4135 19.6039C27.4135 24.9225 23.1342 29.2341 17.8556 29.2341Z" fill="white"/>
<path d="M31.0267 54.3484H2.23756C1.05379 54.3484 0.081543 53.3687 0.081543 52.1761C0.081543 50.9693 1.05379 49.9895 2.23756 49.9895H31.0267C32.2244 49.9895 33.1967 50.9693 33.1967 52.1761C33.1967 53.3687 32.2244 54.3484 31.0267 54.3484V54.3484ZM59.8298 54.3487H39.0025C37.8047 54.3487 36.8323 53.369 36.8323 52.1621C36.8323 50.9553 37.8047 49.9756 39.0025 49.9756H59.8298C61.0277 49.9756 61.9999 50.9553 61.9999 52.1621C61.9999 53.369 61.0277 54.3487 59.8298 54.3487V54.3487ZM14.469 63.9322H2.23756C1.05379 63.9322 0.081543 62.9526 0.081543 61.7598C0.081543 60.553 1.05379 59.5733 2.23756 59.5733H14.469C15.6668 59.5733 16.6392 60.553 16.6392 61.7598C16.6392 62.9526 15.6668 63.9322 14.469 63.9322ZM59.8298 63.9325H21.7402C20.5425 63.9325 19.5702 62.9529 19.5702 61.7461C19.5702 60.5393 20.5425 59.5595 21.7402 59.5595H59.8298C61.0277 59.5595 61.9999 60.5393 61.9999 61.7461C61.9999 62.9529 61.0277 63.9325 59.8298 63.9325Z" fill="#E1E4E5"/>
</g>
<defs>
<clipPath id="clip0_340_4733">
<rect width="62" height="64" fill="white"/>
</clipPath>
</defs>
</svg>
