<svg width="18" height="18" viewBox="0 0 18 18" fill="none" xmlns="http://www.w3.org/2000/svg">
<path d="M14.625 2.25H12.9375V1.6875C12.9375 1.53832 12.8782 1.39524 12.7727 1.28975C12.6673 1.18426 12.5242 1.125 12.375 1.125C12.2258 1.125 12.0827 1.18426 11.9773 1.28975C11.8718 1.39524 11.8125 1.53832 11.8125 1.6875V2.25H6.1875V1.6875C6.1875 1.53832 6.12824 1.39524 6.02275 1.28975C5.91726 1.18426 5.77418 1.125 5.625 1.125C5.47582 1.125 5.33274 1.18426 5.22725 1.28975C5.12176 1.39524 5.0625 1.53832 5.0625 1.6875V2.25H3.375C3.07663 2.25 2.79048 2.36853 2.5795 2.5795C2.36853 2.79048 2.25 3.07663 2.25 3.375V14.625C2.25 14.9234 2.36853 15.2095 2.5795 15.4205C2.79048 15.6315 3.07663 15.75 3.375 15.75H14.625C14.9234 15.75 15.2095 15.6315 15.4205 15.4205C15.6315 15.2095 15.75 14.9234 15.75 14.625V3.375C15.75 3.07663 15.6315 2.79048 15.4205 2.5795C15.2095 2.36853 14.9234 2.25 14.625 2.25V2.25ZM7.3125 13.2188C6.86483 13.2183 6.43537 13.0415 6.11719 12.7266C6.01199 12.6211 5.95292 12.4782 5.95292 12.3293C5.95292 12.1803 6.01199 12.0375 6.11719 11.932C6.16892 11.8791 6.23072 11.837 6.29894 11.8083C6.36716 11.7796 6.44043 11.7648 6.51445 11.7648C6.58847 11.7648 6.66175 11.7796 6.72997 11.8083C6.79819 11.837 6.85998 11.8791 6.91172 11.932C7.01969 12.0352 7.16313 12.0931 7.3125 12.0938C7.46168 12.0938 7.60476 12.0345 7.71025 11.929C7.81574 11.8235 7.875 11.6804 7.875 11.5312C7.875 11.3821 7.81574 11.239 7.71025 11.1335C7.60476 11.028 7.46168 10.9688 7.3125 10.9688H7.13672L7.10859 10.9547H7.0875L7.05234 10.9406H7.04531L7.00312 10.9125H6.98906L6.96094 10.8914L6.93281 10.8703L6.91875 10.8562L6.89766 10.8352C6.8608 10.7928 6.83004 10.7454 6.80625 10.6945C6.78604 10.6571 6.77181 10.6168 6.76406 10.575V10.575C6.75703 10.568 6.75703 10.5609 6.75703 10.5469C6.75735 10.5431 6.7569 10.5392 6.75569 10.5356C6.75448 10.532 6.75254 10.5286 6.75 10.5258V10.4062V10.357C6.75 10.343 6.75703 10.3359 6.75703 10.3289V10.3008C6.76262 10.2925 6.76511 10.2826 6.76406 10.2727C6.77109 10.2656 6.77109 10.2586 6.77109 10.2445L6.78516 10.2234C6.78516 10.2094 6.78516 10.2023 6.79219 10.1953L6.80625 10.1672V10.1461L6.82031 10.118L6.83437 10.0969L6.85547 10.0687L6.86953 10.0547L7.26328 9.5625H6.46875C6.31957 9.5625 6.17649 9.50324 6.071 9.39775C5.96551 9.29226 5.90625 9.14918 5.90625 9C5.90625 8.85082 5.96551 8.70774 6.071 8.60225C6.17649 8.49676 6.31957 8.4375 6.46875 8.4375H8.4375C8.54321 8.43809 8.64661 8.46846 8.73585 8.52512C8.82509 8.58178 8.89655 8.66244 8.94206 8.75785C8.98756 8.85326 9.00526 8.95957 8.99312 9.06457C8.98099 9.16958 8.93951 9.26905 8.87344 9.35156L8.25469 10.132C8.5543 10.334 8.78116 10.6268 8.90189 10.9674C9.02262 11.308 9.03085 11.6783 8.92536 12.0239C8.81987 12.3695 8.60624 12.6721 8.31589 12.8872C8.02555 13.1023 7.67384 13.2185 7.3125 13.2188V13.2188ZM11.8125 12.6562C11.8125 12.8054 11.7532 12.9485 11.6477 13.054C11.5423 13.1595 11.3992 13.2188 11.25 13.2188C11.1008 13.2188 10.9577 13.1595 10.8523 13.054C10.7468 12.9485 10.6875 12.8054 10.6875 12.6562V10.125L10.4625 10.2937C10.3425 10.3815 10.193 10.4188 10.0459 10.3978C9.89872 10.3768 9.76563 10.2991 9.675 10.1813C9.58549 10.0619 9.54706 9.91188 9.56815 9.7642C9.58925 9.61652 9.66815 9.48326 9.7875 9.39375L10.9125 8.55C10.9961 8.48732 11.0954 8.44915 11.1995 8.43977C11.3035 8.43039 11.4081 8.45017 11.5016 8.49688C11.595 8.5436 11.6736 8.61541 11.7285 8.70428C11.7834 8.79314 11.8125 8.89554 11.8125 9V12.6562ZM14.625 5.625H3.375V3.375H5.0625V3.9375C5.0625 4.08668 5.12176 4.22976 5.22725 4.33525C5.33274 4.44074 5.47582 4.5 5.625 4.5C5.77418 4.5 5.91726 4.44074 6.02275 4.33525C6.12824 4.22976 6.1875 4.08668 6.1875 3.9375V3.375H11.8125V3.9375C11.8125 4.08668 11.8718 4.22976 11.9773 4.33525C12.0827 4.44074 12.2258 4.5 12.375 4.5C12.5242 4.5 12.6673 4.44074 12.7727 4.33525C12.8782 4.22976 12.9375 4.08668 12.9375 3.9375V3.375H14.625V5.625Z" fill="#F87BDF"/>
</svg>
