<svg width="166" height="160" viewBox="0 0 166 160" fill="none" xmlns="http://www.w3.org/2000/svg">
<g clip-path="url(#clip0_376_3472)">
<path d="M64.2278 145.73L59.9358 149.673L63.3468 143.962C60.6594 139.099 56.2643 134.896 56.2643 134.896C56.2643 134.896 47.146 143.614 47.146 150.466C47.146 157.319 51.2284 159.712 56.2643 159.712C61.3002 159.712 65.3826 157.319 65.3826 150.466C65.3826 148.941 64.9302 147.324 64.2278 145.73Z" fill="#F2F2F2"/>
<path d="M58.832 149.886V150.224C58.8119 154.15 58.1483 157.214 56.8463 159.371C56.8279 159.403 56.8078 159.433 56.7893 159.465L56.6435 159.376L56.5045 159.289C57.9489 156.96 58.46 153.667 58.4784 150.243C58.4801 150.132 58.4818 150.02 58.4801 149.908C58.4751 148.458 58.3863 146.992 58.2438 145.567C58.2338 145.457 58.2221 145.345 58.2103 145.233C58.0126 143.353 57.7277 141.558 57.4362 139.997C57.4161 139.887 57.3943 139.777 57.3725 139.668C56.8681 137.029 56.3537 135.118 56.2364 134.695C56.223 134.643 56.2146 134.615 56.2129 134.608L56.3721 134.563L56.3738 134.561L56.5346 134.516C56.5363 134.523 56.5648 134.618 56.6117 134.795C56.791 135.458 57.2569 137.255 57.7143 139.626C57.7344 139.733 57.7562 139.844 57.7763 139.954C58.0143 141.22 58.2472 142.634 58.4315 144.119C58.4784 144.492 58.5203 144.86 58.5572 145.223C58.5706 145.335 58.5823 145.447 58.5924 145.557C58.7466 147.097 58.8264 148.54 58.832 149.886Z" fill="white"/>
<path d="M57.7143 139.626C57.602 139.641 57.4881 139.656 57.3724 139.668C57.0584 139.7 56.743 139.716 56.4273 139.717C55.0821 139.718 53.7536 139.419 52.5397 138.84C52.4693 138.929 52.399 139.018 52.3269 139.108C53.6039 139.73 55.0064 140.052 56.4273 140.051C56.7643 140.051 57.101 140.033 57.4361 139.997C57.5501 139.986 57.664 139.971 57.7763 139.954C58.703 139.821 59.6042 139.549 60.449 139.146C60.377 139.054 60.3066 138.964 60.2379 138.875C59.4383 139.248 58.5879 139.501 57.7143 139.626V139.626Z" fill="white"/>
<path d="M58.5572 145.223C58.4416 145.23 58.3259 145.233 58.2103 145.233C58.1751 145.235 58.1383 145.235 58.1031 145.235C56.6454 145.235 55.2094 144.883 53.9174 144.209C52.6254 143.536 51.5157 142.561 50.683 141.367C50.616 141.466 50.549 141.564 50.4836 141.665C51.3516 142.873 52.4954 143.857 53.8204 144.536C55.1455 145.215 56.6135 145.569 58.1031 145.569C58.15 145.569 58.1969 145.569 58.2438 145.567C58.3611 145.566 58.4767 145.562 58.5924 145.557C60.3815 145.466 62.1064 144.862 63.5608 143.818C63.5072 143.72 63.4536 143.621 63.3983 143.522C61.9848 144.547 60.3023 145.138 58.5572 145.223V145.223Z" fill="white"/>
<path d="M58.8319 149.887C58.7146 149.897 58.5973 149.903 58.48 149.908C58.3544 149.913 58.2287 149.917 58.103 149.917C56.1443 149.914 54.239 149.279 52.6725 148.106C51.1059 146.933 49.9622 145.285 49.4128 143.409C49.3374 143.544 49.262 143.678 49.1899 143.813C49.809 145.685 51.0034 147.314 52.6035 148.47C54.2035 149.626 56.1278 150.249 58.103 150.251C58.2287 150.251 58.3543 150.249 58.4783 150.243C58.5973 150.239 58.7146 150.233 58.8319 150.224C61.2012 150.039 63.4115 148.963 65.0153 147.213C64.9801 147.089 64.9399 146.967 64.8996 146.843C63.3506 148.606 61.1741 149.698 58.8319 149.887V149.887Z" fill="white"/>
<path d="M165.169 8.56843H0.830954C0.767839 8.56821 0.707387 8.54304 0.662834 8.49843C0.618281 8.45382 0.593262 8.3934 0.593262 8.33042C0.593262 8.26744 0.618281 8.20702 0.662834 8.16241C0.707387 8.1178 0.767839 8.09262 0.830954 8.09241H165.169C165.232 8.09262 165.292 8.1178 165.337 8.16241C165.381 8.20702 165.406 8.26744 165.406 8.33042C165.406 8.3934 165.381 8.45382 165.337 8.49843C165.292 8.54304 165.232 8.56821 165.169 8.56843Z" fill="#CACACA"/>
<path d="M6.19961 5.23623C7.64862 5.23623 8.82329 4.06406 8.82329 2.61811C8.82329 1.17217 7.64862 0 6.19961 0C4.75059 0 3.57593 1.17217 3.57593 2.61811C3.57593 4.06406 4.75059 5.23623 6.19961 5.23623Z" fill="#C548AC"/>
<path d="M15.2631 5.23623C16.7121 5.23623 17.8868 4.06406 17.8868 2.61811C17.8868 1.17217 16.7121 0 15.2631 0C13.8141 0 12.6394 1.17217 12.6394 2.61811C12.6394 4.06406 13.8141 5.23623 15.2631 5.23623Z" fill="#C548AC"/>
<path d="M24.3268 5.23623C25.7758 5.23623 26.9505 4.06406 26.9505 2.61811C26.9505 1.17217 25.7758 0 24.3268 0C22.8778 0 21.7031 1.17217 21.7031 2.61811C21.7031 4.06406 22.8778 5.23623 24.3268 5.23623Z" fill="#C548AC"/>
<path d="M159.738 1.60146H153.298C153.172 1.60102 153.051 1.55068 152.962 1.46145C152.873 1.37223 152.823 1.2514 152.823 1.12544C152.823 0.999472 152.873 0.878642 152.962 0.789418C153.051 0.700194 153.172 0.649852 153.298 0.649417H159.738C159.801 0.649201 159.863 0.661352 159.921 0.685178C159.979 0.709003 160.032 0.744033 160.077 0.788257C160.121 0.832481 160.156 0.885029 160.181 0.94289C160.205 1.00075 160.217 1.06279 160.217 1.12544C160.217 1.18809 160.205 1.25012 160.181 1.30798C160.156 1.36584 160.121 1.41839 160.077 1.46262C160.032 1.50684 159.979 1.54187 159.921 1.5657C159.863 1.58952 159.801 1.60167 159.738 1.60146Z" fill="#C548AC"/>
<path d="M159.738 3.38649H153.298C153.172 3.38605 153.051 3.33571 152.962 3.24649C152.873 3.15726 152.823 3.03643 152.823 2.91047C152.823 2.78451 152.873 2.66368 152.962 2.57445C153.051 2.48523 153.172 2.43489 153.298 2.43445H159.738C159.801 2.43423 159.863 2.44639 159.921 2.47021C159.979 2.49404 160.032 2.52907 160.077 2.57329C160.121 2.61752 160.156 2.67006 160.181 2.72792C160.205 2.78578 160.217 2.84782 160.217 2.91047C160.217 2.97312 160.205 3.03516 160.181 3.09302C160.156 3.15088 160.121 3.20343 160.077 3.24765C160.032 3.29187 159.979 3.3269 159.921 3.35073C159.863 3.37455 159.801 3.38671 159.738 3.38649Z" fill="#C548AC"/>
<path d="M159.738 5.17153H153.298C153.172 5.17109 153.051 5.12075 152.962 5.03152C152.873 4.9423 152.823 4.82147 152.823 4.6955C152.823 4.56954 152.873 4.44871 152.962 4.35949C153.051 4.27027 153.172 4.21992 153.298 4.21949H159.738C159.801 4.21927 159.863 4.23142 159.921 4.25525C159.979 4.27908 160.032 4.3141 160.077 4.35833C160.121 4.40255 160.156 4.4551 160.181 4.51296C160.205 4.57082 160.217 4.63285 160.217 4.6955C160.217 4.75816 160.205 4.82019 160.181 4.87805C160.156 4.93591 160.121 4.98846 160.077 5.03269C160.032 5.07691 159.979 5.11194 159.921 5.13576C159.863 5.15959 159.801 5.17175 159.738 5.17153Z" fill="#C548AC"/>
<path d="M156.145 19.332H5.54346V98.9536H156.145V19.332Z" fill="#F0F0F0"/>
<path d="M156.145 34.2359V33.455H126.829V19.332H126.046V33.455H96.73V19.332H95.9475V33.455H66.6314V19.332H65.8489V33.455H36.5326V19.332H35.7501V33.455H5.54346V34.2359H35.7501V49.8382H5.54346V50.619H35.7501V66.2213H5.54346V67.0022H35.7501V82.6016H5.54346V83.3825H35.7501V98.9536H36.5326V83.3825H65.8489V98.9536H66.6314V83.3825H95.9475V98.9536H96.73V83.3825H126.046V98.9536H126.829V83.3825H156.145V82.6016H126.829V67.0022H156.145V66.2213H126.829V50.619H156.145V49.8382H126.829V34.2359L156.145 34.2359ZM65.8489 82.6016H36.5326V67.0022H65.8489V82.6016ZM65.8489 66.2213H36.5326V50.619H65.8489V66.2213ZM65.8489 49.8382H36.5326V34.2359H65.8489V49.8382ZM95.9475 82.6017H66.6314V67.0022H95.9475V82.6017ZM95.9475 66.2213H66.6314V50.619H95.9475V66.2213ZM95.9475 49.8382H66.6314V34.2359H95.9475V49.8382ZM126.046 82.6017H96.73V67.0022H126.046V82.6017ZM126.046 66.2214H96.73V50.619H126.046V66.2214ZM126.046 49.8382H96.73V34.2359H126.046V49.8382Z" fill="white"/>
<path d="M52.4398 38.0303H42.3645V47.7637H52.4398V38.0303Z" fill="#FFD5F6"/>
<path d="M145.2 69.5474H135.125V79.2808H145.2V69.5474Z" fill="#FFF2FC"/>
<path d="M55.5697 85.7317H45.4944V95.4651H55.5697V85.7317Z" fill="#FFF2FC"/>
<path d="M58.5475 36.2245H48.4722V45.9579H58.5475V36.2245Z" fill="#F87BDF"/>
<path d="M105.909 76.6845L117.866 66.0548L121.393 67.7987L107.053 82.8071L105.909 76.6845Z" fill="#FFB6B6"/>
<path d="M119.439 69.7082C121.01 69.7082 122.284 68.4369 122.284 66.8688C122.284 65.3006 121.01 64.0294 119.439 64.0294C117.867 64.0294 116.594 65.3006 116.594 66.8688C116.594 68.4369 117.867 69.7082 119.439 69.7082Z" fill="#FFB6B6"/>
<path d="M94.718 156.692H91.8888L90.543 145.803L94.7183 145.804L94.718 156.692Z" fill="#FFB6B6"/>
<path d="M95.4396 159.429L86.3176 159.428V159.313C86.3177 158.374 86.6918 157.472 87.3576 156.808C88.0235 156.144 88.9265 155.77 89.8682 155.77H89.8684L95.4398 155.77L95.4396 159.429Z" fill="#2F2E41"/>
<path d="M84.4746 156.692H81.6454L80.2996 145.803L84.4749 145.804L84.4746 156.692Z" fill="#FFB6B6"/>
<path d="M85.196 159.429L76.074 159.428V159.313C76.074 158.374 76.4481 157.472 77.114 156.808C77.7798 156.144 78.6829 155.77 79.6245 155.77H79.6247L85.1961 155.77L85.196 159.429Z" fill="#2F2E41"/>
<path d="M97.0942 94.4484C97.0942 94.4484 104.208 93.8805 101.931 106.374C99.655 118.867 94.94 153.042 94.94 153.042L90.6652 153.628L88.1397 108.04L86.229 153.628L80.7923 153.042L75.4692 104.102C75.4692 104.102 73.76 100.167 75.4682 97.4499C77.1764 94.7323 97.0942 94.4484 97.0942 94.4484Z" fill="#7D7D7D"/>
<path d="M92.5415 63.4994L94.5165 62.4435C94.5165 62.4435 99.3824 62.0294 101.368 67.7333L106.635 75.6709L115.171 68.2885L118.87 70.8439L108.112 83.6565L103.639 84.2268L93.9642 71.7336L92.5415 63.4994Z" fill="#403A3F"/>
<path d="M85.375 40.4626C77.2606 40.4626 74.9893 49.3575 74.9893 54.3756C74.9893 59.3936 79.6391 58.6346 85.375 58.6346C87.8369 58.6346 90.0974 58.7733 91.8773 58.5361L92.7334 56.45L93.4224 58.1785C94.8835 57.6429 95.7607 56.554 95.7607 54.3756C95.7607 49.3575 93.7689 40.4626 85.375 40.4626Z" fill="#2F2E41"/>
<path d="M85.3402 58.6263C89.1999 58.6263 92.3288 55.504 92.3288 51.6525C92.3288 47.801 89.1999 44.6787 85.3402 44.6787C81.4805 44.6787 78.3516 47.801 78.3516 51.6525C78.3516 55.504 81.4805 58.6263 85.3402 58.6263Z" fill="#FFB6B6"/>
<path d="M77.2654 50.9683H80.0295L81.2489 47.5611L81.4928 50.9683H82.8139L83.5253 48.9807L83.6675 50.9683H93.4842C93.4842 49.0104 92.7047 47.1326 91.3173 45.7482C89.9299 44.3637 88.0482 43.5859 86.0861 43.5859H84.6634C82.7013 43.5859 80.8196 44.3637 79.4322 45.7482C78.0448 47.1326 77.2654 49.0104 77.2654 50.9683Z" fill="#2F2E41"/>
<path d="M123.992 56.1001H113.916V65.8335H123.992V56.1001Z" fill="#F87BDF"/>
<path d="M99.3053 91.8793C98.2323 91.8931 95.0002 72.7561 95.0002 72.7561L94.5165 62.4436L90.985 62.3251V62.0933C90.985 61.6278 90.7997 61.1814 90.4698 60.8523C90.14 60.5232 89.6927 60.3383 89.2262 60.3383H82.5003C82.0535 60.3385 81.6236 60.5085 81.2979 60.8138C80.9723 61.1191 80.7754 61.5367 80.7473 61.9817L77.9779 61.8888L73.1816 77.0947C73.1816 77.0947 77.6012 91.2235 75.4681 97.4499C75.4681 97.4499 96.2504 99.2308 100.229 95.278C100.229 95.278 100.378 91.8655 99.3053 91.8793Z" fill="#403A3F"/>
<path d="M79.1681 63.7833L77.9778 61.8887C77.9778 61.8887 74.1051 60.9333 72.5108 63.494C70.9164 66.0547 66.23 79.9298 66.23 79.9298L71.0672 81.6334L76.5563 73.9542L79.1681 63.7833Z" fill="#403A3F"/>
<path d="M91.2694 73.7041H81.1941V83.4375H91.2694V73.7041Z" fill="#92227C"/>
<path d="M73.4641 77.2221L69.9589 76.8521C69.7375 77.3233 69.6265 77.8385 69.6342 78.3589C69.6418 78.8792 69.768 79.391 70.0031 79.8555C70.2383 80.32 70.5762 80.7251 70.9914 81.04C71.4065 81.355 71.888 81.5716 72.3995 81.6735L86.2689 84.4357L84.8222 79.9895L73.4641 77.2221Z" fill="#FFB6B6"/>
<path d="M86.3107 84.4868C87.8822 84.4868 89.1561 83.2156 89.1561 81.6475C89.1561 80.0793 87.8822 78.8081 86.3107 78.8081C84.7393 78.8081 83.4653 80.0793 83.4653 81.6475C83.4653 83.2156 84.7393 84.4868 86.3107 84.4868Z" fill="#FFB6B6"/>
<path d="M82.7585 84.5733L72.1922 82.164C71.4266 81.9873 70.7196 81.6163 70.1397 81.087C69.5599 80.5577 69.1268 79.888 68.8823 79.1427L68.4553 77.8287L71.1976 75.6753L83.7608 79.1793L82.7585 84.5733Z" fill="#403A3F"/>
<path d="M142.134 160H33.724C33.6485 160 33.5762 159.97 33.5228 159.917C33.4694 159.864 33.4395 159.791 33.4395 159.716C33.4395 159.641 33.4694 159.569 33.5228 159.515C33.5762 159.462 33.6485 159.432 33.724 159.432H142.134C142.209 159.432 142.282 159.462 142.335 159.515C142.388 159.569 142.418 159.641 142.418 159.716C142.418 159.791 142.388 159.864 142.335 159.917C142.282 159.97 142.209 160 142.134 160Z" fill="#CACACA"/>
<path d="M92.0741 53.7037H78.7407C79.1111 55.7408 81.7174 58.7037 85.2222 58.7037C88.727 58.7037 91.1481 56.2963 92.0741 53.7037Z" fill="#70DDFF"/>
</g>
<defs>
<clipPath id="clip0_376_3472">
<rect width="164.815" height="160" fill="white" transform="translate(0.592529)"/>
</clipPath>
</defs>
</svg>
